name D:\school\WTK\thesis\model\3dpredictsim\Results\MidTarsalJoint\Fal_s1_bCst_PF_Natali2010_ls148_MT_nl_fitted3_MTP_T2_ig24.mot
datacolumns 128
datarows 4
range 1.13010598 1.16400916
endheader
time	pelvis_tilt	pelvis_list	pelvis_rotation	pelvis_tx	pelvis_ty	pelvis_tz	hip_flexion_l	hip_adduction_l	hip_rotation_l	hip_flexion_r	hip_adduction_r	hip_rotation_r	knee_angle_l	knee_angle_r	ankle_angle_l	ankle_angle_r	subtalar_angle_l	subtalar_angle_r	mtj_angle_l	mtj_angle_r	mtp_angle_l	mtp_angle_r	lumbar_extension	lumbar_bending	lumbar_rotation	arm_flex_l	arm_add_l	arm_rot_l	arm_flex_r	arm_add_r	arm_rot_r	elbow_flex_l	elbow_flex_r	pro_sup_l	pro_sup_r	glut_med1_l/activation	glut_med2_l/activation	glut_med3_l/activation	glut_min1_l/activation	glut_min2_l/activation	glut_min3_l/activation	semimem_l/activation	semiten_l/activation	bifemlh_l/activation	bifemsh_l/activation	sar_l/activation	add_long_l/activation	add_brev_l/activation	add_mag1_l/activation	add_mag2_l/activation	add_mag3_l/activation	tfl_l/activation	pect_l/activation	grac_l/activation	glut_max1_l/activation	glut_max2_l/activation	glut_max3_l/activation	iliacus_l/activation	psoas_l/activation	quad_fem_l/activation	gem_l/activation	peri_l/activation	rect_fem_l/activation	vas_med_l/activation	vas_int_l/activation	vas_lat_l/activation	med_gas_l/activation	lat_gas_l/activation	soleus_l/activation	tib_post_l/activation	flex_dig_l/activation	flex_hal_l/activation	tib_ant_l/activation	per_brev_l/activation	per_long_l/activation	per_tert_l/activation	ext_dig_l/activation	ext_hal_l/activation	ercspn_l/activation	intobl_l/activation	extobl_l/activation	glut_med1_r/activation	glut_med2_r/activation	glut_med3_r/activation	glut_min1_r/activation	glut_min2_r/activation	glut_min3_r/activation	semimem_r/activation	semiten_r/activation	bifemlh_r/activation	bifemsh_r/activation	sar_r/activation	add_long_r/activation	add_brev_r/activation	add_mag1_r/activation	add_mag2_r/activation	add_mag3_r/activation	tfl_r/activation	pect_r/activation	grac_r/activation	glut_max1_r/activation	glut_max2_r/activation	glut_max3_r/activation	iliacus_r/activation	psoas_r/activation	quad_fem_r/activation	gem_r/activation	peri_r/activation	rect_fem_r/activation	vas_med_r/activation	vas_int_r/activation	vas_lat_r/activation	med_gas_r/activation	lat_gas_r/activation	soleus_r/activation	tib_post_r/activation	flex_dig_r/activation	flex_hal_r/activation	tib_ant_r/activation	per_brev_r/activation	per_long_r/activation	per_tert_r/activation	ext_dig_r/activation	ext_hal_r/activation	ercspn_r/activation	intobl_r/activation	extobl_r/activation	
          1.13010598	         -2.92136657	         -2.14464613	          5.70119098	          1.41263248	          0.91780274	         -0.00220468	        -16.17828987	         -1.14583691	          6.50226407	         28.12673058	          4.18966913	         -1.19168946	        -11.88828266	        -11.82315103	         -3.56068722	          3.99396101	          9.60372342	         -7.08994011	          3.02281092	         -0.70688109	         20.57631853	          3.91715234	         -1.69562987	          0.66687419	         -2.00524699	          4.13683322	        -13.46596021	         16.31308734	         -6.86317091	        -13.45174218	          5.30715229	         36.99592380	         16.79415946	         86.51662706	         86.51662706	          0.37054962	          0.07211833	          0.05291884	          0.22224042	          0.14140892	          0.08076008	          0.05000415	          0.05000105	          0.05000072	          0.05000019	          0.07422237	          0.12555882	          0.14762529	          0.05941845	          0.05941735	          0.05941769	          0.21353144	          0.08295177	          0.05001500	          0.05001745	          0.05006019	          0.05941651	          0.26867556	          0.47551015	          0.05662699	          0.05000148	          0.05000016	          0.15412981	          0.11124135	          0.14075906	          0.12563254	          0.20190903	          0.26917209	          0.23527295	          0.19356087	          0.18729925	          0.24428905	          0.05000533	          0.05000014	          0.12483338	          0.05000020	          0.06516729	          0.05000038	          0.05226771	          0.05987832	          0.05941801	          0.27176602	          0.05000027	          0.16093005	          0.05000018	          0.05000023	          0.24373410	          0.14299923	          0.05000138	          0.07606197	          0.05000010	          0.05000033	          0.09944828	          0.20526550	          0.22509179	          0.14617769	          0.10045615	          0.05000118	          0.05942374	          0.08730602	          0.05000114	          0.05000553	          0.10481930	          0.05941709	          0.05654176	          0.47382476	          0.16734947	          0.14918658	          0.07060892	          0.18408034	          0.18357254	          0.15691775	          0.05689823	          0.05835782	          0.05744226	          0.05000026	          0.05000073	          0.05000073	          0.49218909	          0.31585640	          0.16748319	          0.21444106	          0.58540001	          0.05798562	          0.05000001	          0.11421264	          0.07061076	
          1.14140704	         -2.91211877	         -2.23403155	          5.88962437	          1.43011848	          0.91697652	         -0.00200679	        -15.97560129	         -1.42892888	          6.29807023	         27.24380629	          4.44267920	         -0.94221503	        -13.89191695	        -12.13889041	         -4.23596945	          3.39184857	         10.52209109	         -7.47583708	          1.75317500	         -0.64729066	         22.66248852	          3.51101318	         -1.47149544	          0.88299236	         -2.06033829	          3.73640736	        -13.47355947	         16.53975890	         -7.74091950	        -13.45951130	          5.14761592	         38.04644215	         16.46968283	         86.51662706	         86.51662706	          0.34604208	          0.06068777	          0.05000006	          0.36605331	          0.11899601	          0.06795986	          0.05000195	          0.05000018	          0.05000015	          0.05000034	          0.06245865	          0.10633797	          0.12422727	          0.05000112	          0.05000118	          0.05000078	          0.17968754	          0.06982211	          0.05000064	          0.05000104	          0.05000058	          0.05000042	          0.22609114	          0.43597865	          0.05000008	          0.05000054	          0.05000040	          0.12970063	          0.11849303	          0.11849303	          0.11849308	          0.16990690	          0.22650892	          0.19798272	          0.16288193	          0.15761282	          0.20556984	          0.10594123	          0.14610128	          0.11386427	          0.05000352	          0.14643208	          0.05001906	          0.06902664	          0.05038774	          0.05000041	          0.32125175	          0.27668642	          0.32631529	          0.16290024	          0.23326161	          0.20510467	          0.12033420	          0.07231337	          0.06400638	          0.08390787	          0.05016091	          0.08368599	          0.17273141	          0.18941539	          0.12300912	          0.12093159	          0.05000058	          0.05000561	          0.07346921	          0.19694413	          0.14409934	          0.09993975	          0.05000010	          0.05000010	          0.39872465	          0.14082512	          0.16165983	          0.05941760	          0.15490435	          0.15447748	          0.13204691	          0.05000017	          0.05000028	          0.05000003	          0.05000005	          0.05000022	          0.05000025	          0.58412956	          0.34401039	          0.18473775	          0.55197200	          0.56527688	          0.23984156	          0.07453360	          0.09611039	          0.05941913	
          1.15270810	         -2.90025268	         -2.31020113	          6.04180631	          1.44758491	          0.91620640	         -0.00177246	        -15.69031046	         -1.69155661	          6.11327451	         26.36954839	          4.68801082	         -0.70026957	        -15.98667951	        -12.49831247	         -4.84514720	          2.90378254	         11.39884711	         -7.87154920	          0.03936869	         -0.57810043	         24.95541193	          3.11683806	         -1.25732814	          1.09067004	         -2.10717932	          3.31792642	        -13.48844289	         16.73218911	         -8.56733784	        -13.46582919	          5.05318629	         39.03451425	         16.13532752	         86.51662706	         86.51662706	          0.34409895	          0.05106896	          0.05000011	          0.30803499	          0.10013548	          0.05718846	          0.05000124	          0.05000014	          0.05000015	          0.05000007	          0.05255929	          0.08948434	          0.18674842	          0.05941594	          0.05147598	          0.14081145	          0.15120766	          0.05875644	          0.05000041	          0.05000369	          0.05000309	          0.05000355	          0.19025623	          0.39124547	          0.05000023	          0.05000063	          0.05000010	          0.10914338	          0.09971235	          0.09971235	          0.09971232	          0.14297704	          0.19060777	          0.16660290	          0.13706553	          0.13263162	          0.17298754	          0.17863163	          0.14081014	          0.09581775	          0.19750794	          0.20412929	          0.12058211	          0.09243634	          0.05000002	          0.05000003	          0.41740371	          0.37308614	          0.43091618	          0.23282836	          0.19629358	          0.33470833	          0.10126161	          0.07351992	          0.06647497	          0.07060873	          0.05000038	          0.07042207	          0.14535414	          0.15939497	          0.16321541	          0.14514169	          0.05000044	          0.05247549	          0.07063128	          0.24351901	          0.17938788	          0.13597233	          0.05000022	          0.05000019	          0.33552774	          0.11850480	          0.22224085	          0.05000014	          0.21532808	          0.21934987	          0.17980666	          0.05000004	          0.05000008	          0.05000001	          0.05000006	          0.05000038	          0.05000033	          0.67372973	          0.28948554	          0.15545724	          0.46453312	          0.62138136	          0.30009705	          0.09607062	          0.08087712	          0.05000135	
          1.16400916	         -2.88631531	         -2.38369320	          6.16343842	          1.46485275	          0.91558456	         -0.00151102	        -15.27820011	         -1.93687103	          5.93934416	         25.56978084	          4.94330262	         -0.45446536	        -18.21697933	        -12.96867257	         -5.43291906	          2.41731959	         12.21197860	         -8.27487158	         -2.07853742	         -0.50896387	         27.42012680	          2.73638821	         -1.06270696	          1.30158074	         -2.14593435	          2.92458646	        -13.50165069	         16.92316394	         -9.31264280	        -13.47145466	          5.01315497	         39.91193007	         15.77937458	         86.51662706	         86.51662706	          0.28956025	          0.05000011	          0.05000005	          0.25921255	          0.08426432	          0.05000020	          0.05000121	          0.05000014	          0.05000020	          0.05000005	          0.05000037	          0.07530177	          0.32287735	          0.05000149	          0.08741218	          0.11849415	          0.12724195	          0.05000156	          0.05000019	          0.05000147	          0.05000111	          0.05000101	          0.16010107	          0.35830106	          0.05000007	          0.05000033	          0.05000011	          0.09184440	          0.08390818	          0.08390818	          0.08390815	          0.12031550	          0.16039689	          0.14019671	          0.11534099	          0.11160992	          0.14556949	          0.23008217	          0.11849244	          0.08063098	          0.40485512	          0.23806416	          0.17994192	          0.12292193	          0.05000003	          0.05000004	          0.50013038	          0.46295446	          0.48630329	          0.19592690	          0.30011852	          0.32224221	          0.08521198	          0.07821973	          0.06360103	          0.05941751	          0.05000048	          0.05926041	          0.12231592	          0.13413208	          0.17637954	          0.17590953	          0.05000038	          0.05000132	          0.05943716	          0.30283823	          0.22675837	          0.18103778	          0.05000007	          0.05000008	          0.28234741	          0.09972220	          0.18701654	          0.05000010	          0.30065502	          0.30425993	          0.25004958	          0.05000005	          0.05000013	          0.05000002	          0.12273211	          0.07061331	          0.05000313	          0.72078226	          0.24360277	          0.13081764	          0.39090580	          0.57903586	          0.30719771	          0.10090719	          0.06805830	          0.05000004	
